<svg xmlns="http://www.w3.org/2000/svg" viewBox="0 0 320 320" role="img" aria-labelledby="title desc"><title id="title">Chowder</title><desc id="desc">Chowder from Chowder</desc><defs><linearGradient id="bg" x1="0" y1="0" x2="1" y2="1"><stop offset="0%" stop-color="#7c5bd5"/><stop offset="100%" stop-color="#d7b8ff"/></linearGradient><linearGradient id="panel" x1="0" y1="0" x2="0.9" y2="1"><stop offset="0%" stop-color="#ffffff" stop-opacity="0.15"/><stop offset="100%" stop-color="#ffffff" stop-opacity="0.04"/></linearGradient><filter id="shadow" x="-20%" y="-20%" width="140%" height="160%"><feDropShadow dx="0" dy="10" stdDeviation="10" flood-color="#08111f" flood-opacity="0.35"/></filter></defs><rect x="0" y="0" width="320" height="320" rx="34" fill="url(#bg)"/><circle cx="62" cy="84" r="20" fill="#ffb86b" opacity="0.14"/><circle cx="270" cy="84" r="26" fill="#ffb86b" opacity="0.16"/><circle cx="252" cy="228" r="18" fill="#ffb86b" opacity="0.12"/><circle cx="80" cy="228" r="14" fill="#ffb86b" opacity="0.10"/><line x1="248" y1="54" x2="278" y2="84" stroke="#ffb86b" stroke-width="5" stroke-linecap="round" opacity="0.18"/><line x1="44" y1="230" x2="84" y2="250" stroke="#ffb86b" stroke-width="5" stroke-linecap="round" opacity="0.16"/><rect x="24" y="22" width="272" height="276" rx="28" fill="url(#panel)" stroke="#ffffff" stroke-opacity="0.18"/><ellipse cx="160" cy="264" rx="92" ry="18" fill="#091221" opacity="0.28"/><g filter="url(#shadow)"><ellipse cx="160" cy="120" rx="78" ry="78" fill="#9d75e6"/><polygon points="106,82 160,46 214,82 186,104 134,104" fill="#5f3f9e"/><rect x="118" y="184" width="84" height="64" rx="24" fill="#8a4e7b"/><ellipse cx="160" cy="138" rx="52" ry="42" fill="#bb91ef"/><circle cx="138" cy="126" r="6" fill="#1b2337"/><circle cx="182" cy="126" r="6" fill="#1b2337"/><ellipse cx="160" cy="146" rx="16" ry="12" fill="#ffb86b"/><path d="M 140 158 Q 160 176 180 158" fill="none" stroke="#1b2337" stroke-width="4" stroke-linecap="round"/><rect x="124" y="208" width="72" height="18" rx="9" fill="#d6b8ff"/><line x1="118" y1="194" x2="90" y2="220" stroke="#bb91ef" stroke-width="10" stroke-linecap="round"/><line x1="202" y1="194" x2="230" y2="220" stroke="#bb91ef" stroke-width="10" stroke-linecap="round"/></g><rect x="34" y="32" width="82" height="30" rx="15" fill="#0d1828" fill-opacity="0.48" stroke="#ffffff" stroke-opacity="0.15"/><text x="48" y="52" fill="#ffffff" font-size="14" font-weight="700" font-family="'Trebuchet MS', 'Segoe UI', sans-serif">Chowder</text></svg>