<svg xmlns="http://www.w3.org/2000/svg" viewBox="0 0 320 320" role="img" aria-labelledby="title desc"><title id="title">Dexter</title><desc id="desc">Dexter from Dexter's Laboratory</desc><defs><linearGradient id="bg" x1="0" y1="0" x2="1" y2="1"><stop offset="0%" stop-color="#ff802e"/><stop offset="100%" stop-color="#ffd060"/></linearGradient><linearGradient id="panel" x1="0" y1="0" x2="0.9" y2="1"><stop offset="0%" stop-color="#ffffff" stop-opacity="0.15"/><stop offset="100%" stop-color="#ffffff" stop-opacity="0.04"/></linearGradient><filter id="shadow" x="-20%" y="-20%" width="140%" height="160%"><feDropShadow dx="0" dy="10" stdDeviation="10" flood-color="#08111f" flood-opacity="0.35"/></filter></defs><rect x="0" y="0" width="320" height="320" rx="34" fill="url(#bg)"/><circle cx="62" cy="84" r="20" fill="#a0e7ff" opacity="0.14"/><circle cx="270" cy="84" r="26" fill="#a0e7ff" opacity="0.16"/><circle cx="252" cy="228" r="18" fill="#a0e7ff" opacity="0.12"/><circle cx="80" cy="228" r="14" fill="#a0e7ff" opacity="0.10"/><line x1="248" y1="54" x2="278" y2="84" stroke="#a0e7ff" stroke-width="5" stroke-linecap="round" opacity="0.18"/><line x1="44" y1="230" x2="84" y2="250" stroke="#a0e7ff" stroke-width="5" stroke-linecap="round" opacity="0.16"/><rect x="24" y="22" width="272" height="276" rx="28" fill="url(#panel)" stroke="#ffffff" stroke-opacity="0.18"/><ellipse cx="160" cy="264" rx="92" ry="18" fill="#091221" opacity="0.28"/><g filter="url(#shadow)"><path d="M 118 80 Q 140 48 160 54 Q 188 44 208 82 L 206 106 Q 188 94 160 96 Q 132 94 114 106 Z" fill="#ff7d2c"/><ellipse cx="160" cy="128" rx="56" ry="66" fill="#ffd3ba"/><rect x="114" y="106" width="44" height="32" rx="10" fill="#ffffff" stroke="#182132" stroke-width="5"/><rect x="162" y="106" width="44" height="32" rx="10" fill="#ffffff" stroke="#182132" stroke-width="5"/><rect x="154" y="116" width="12" height="8" rx="4" fill="#182132"/><circle cx="136" cy="124" r="7" fill="#182132"/><circle cx="184" cy="124" r="7" fill="#182132"/><path d="M 146 156 Q 160 166 174 156" fill="none" stroke="#182132" stroke-width="4" stroke-linecap="round"/><rect x="118" y="186" width="84" height="66" rx="22" fill="#f7fbff"/><rect x="146" y="186" width="28" height="66" rx="10" fill="#9fe0ff"/><line x1="118" y1="194" x2="90" y2="218" stroke="#ffd3ba" stroke-width="9" stroke-linecap="round"/><line x1="202" y1="194" x2="230" y2="218" stroke="#ffd3ba" stroke-width="9" stroke-linecap="round"/></g><rect x="34" y="32" width="72" height="30" rx="15" fill="#0d1828" fill-opacity="0.48" stroke="#ffffff" stroke-opacity="0.15"/><text x="48" y="52" fill="#ffffff" font-size="14" font-weight="700" font-family="'Trebuchet MS', 'Segoe UI', sans-serif">Dexter</text></svg>