<svg xmlns="http://www.w3.org/2000/svg" viewBox="0 0 320 320" role="img" aria-labelledby="title desc"><title id="title">Pops</title><desc id="desc">Pops from Regular Show</desc><defs><linearGradient id="bg" x1="0" y1="0" x2="1" y2="1"><stop offset="0%" stop-color="#f3a7cf"/><stop offset="100%" stop-color="#ffd9ef"/></linearGradient><linearGradient id="panel" x1="0" y1="0" x2="0.9" y2="1"><stop offset="0%" stop-color="#ffffff" stop-opacity="0.15"/><stop offset="100%" stop-color="#ffffff" stop-opacity="0.04"/></linearGradient><filter id="shadow" x="-20%" y="-20%" width="140%" height="160%"><feDropShadow dx="0" dy="10" stdDeviation="10" flood-color="#08111f" flood-opacity="0.35"/></filter></defs><rect x="0" y="0" width="320" height="320" rx="34" fill="url(#bg)"/><circle cx="62" cy="84" r="20" fill="#6de6ff" opacity="0.14"/><circle cx="270" cy="84" r="26" fill="#6de6ff" opacity="0.16"/><circle cx="252" cy="228" r="18" fill="#6de6ff" opacity="0.12"/><circle cx="80" cy="228" r="14" fill="#6de6ff" opacity="0.10"/><line x1="248" y1="54" x2="278" y2="84" stroke="#6de6ff" stroke-width="5" stroke-linecap="round" opacity="0.18"/><line x1="44" y1="230" x2="84" y2="250" stroke="#6de6ff" stroke-width="5" stroke-linecap="round" opacity="0.16"/><rect x="24" y="22" width="272" height="276" rx="28" fill="url(#panel)" stroke="#ffffff" stroke-opacity="0.18"/><ellipse cx="160" cy="264" rx="92" ry="18" fill="#091221" opacity="0.28"/><g filter="url(#shadow)"><circle cx="160" cy="112" r="58" fill="#ffe4ee"/><rect x="122" y="164" width="76" height="74" rx="26" fill="#f3a3cf"/><rect x="148" y="154" width="24" height="22" rx="10" fill="#f7d6e4"/><polygon points="144,176 160,194 176,176 190,188 160,216 130,188" fill="#2b2c55"/><circle cx="144" cy="112" r="5" fill="#2b2c55"/><circle cx="176" cy="112" r="5" fill="#2b2c55"/><path d="M 144 138 Q 160 148 176 138" fill="none" stroke="#2b2c55" stroke-width="4" stroke-linecap="round"/><rect x="148" y="42" width="24" height="22" rx="4" fill="#2b2c55"/><rect x="142" y="34" width="36" height="10" rx="4" fill="#2b2c55"/><line x1="122" y1="186" x2="96" y2="210" stroke="#ffe4ee" stroke-width="8" stroke-linecap="round"/><line x1="198" y1="186" x2="224" y2="210" stroke="#ffe4ee" stroke-width="8" stroke-linecap="round"/></g><rect x="34" y="32" width="132" height="30" rx="15" fill="#0d1828" fill-opacity="0.48" stroke="#ffffff" stroke-opacity="0.15"/><text x="48" y="52" fill="#ffffff" font-size="14" font-weight="700" font-family="'Trebuchet MS', 'Segoe UI', sans-serif">Regular Show</text></svg>