<?xml version="1.0" encoding="UTF-8"?>
<svg xmlns="http://www.w3.org/2000/svg" width="640" height="640" viewBox="0 0 640 640" role="img" aria-labelledby="title desc">
  <title id="title">Aurora</title>
  <desc id="desc">Roman - Morning</desc>
  <defs>
    <linearGradient id="bg" x1="0" y1="0" x2="1" y2="1">
      <stop offset="0%" stop-color="hsl(239 58% 22%)" />
      <stop offset="100%" stop-color="hsl(336 64% 44%)" />
    </linearGradient>
    <radialGradient id="halo" cx="50%" cy="40%" r="60%">
      <stop offset="0%" stop-color="hsl(346 36% 95%)" stop-opacity="0.82" />
      <stop offset="100%" stop-color="hsl(346 36% 95%)" stop-opacity="0" />
    </radialGradient>
  </defs>
  <rect width="640" height="640" rx="44" fill="url(#bg)" />
  <rect x="18" y="18" width="604" height="604" rx="34" fill="none" stroke="hsl(346 36% 95%)" stroke-opacity="0.28" stroke-width="4" />
  <circle cx="320" cy="250" r="164" fill="url(#halo)" />
  
    <rect x="58" y="52" width="524" height="44" rx="20" fill="hsl(346 36% 95%)" fill-opacity="0.16" /><text x="320" y="81" fill="hsl(346 36% 95%)" font-family="Trebuchet MS, Verdana, sans-serif" font-size="22" font-weight="700" text-anchor="middle">Roman Mythic Pack</text>
    
    <g opacity="0.18">
      <rect x="120" y="132" width="52" height="244" rx="12" fill="hsl(346 36% 95%)" />
      <rect x="110" y="118" width="72" height="20" rx="8" fill="hsl(346 36% 95%)" />
      <rect x="110" y="366" width="72" height="20" rx="8" fill="hsl(346 36% 95%)" />
    </g>
  
    <g opacity="0.18">
      <rect x="250" y="132" width="52" height="244" rx="12" fill="hsl(346 36% 95%)" />
      <rect x="240" y="118" width="72" height="20" rx="8" fill="hsl(346 36% 95%)" />
      <rect x="240" y="366" width="72" height="20" rx="8" fill="hsl(346 36% 95%)" />
    </g>
  
    <g opacity="0.18">
      <rect x="380" y="132" width="52" height="244" rx="12" fill="hsl(346 36% 95%)" />
      <rect x="370" y="118" width="72" height="20" rx="8" fill="hsl(346 36% 95%)" />
      <rect x="370" y="366" width="72" height="20" rx="8" fill="hsl(346 36% 95%)" />
    </g>
  
    <path d="M184 420 C130 378 116 314 124 260" fill="none" stroke="hsl(72 72% 68%)" stroke-width="8" opacity="0.42" /><path d="M456 420 C510 378 524 314 516 260" fill="none" stroke="hsl(72 72% 68%)" stroke-width="8" opacity="0.42" />
    
    <g>
      <ellipse cx="256" cy="354" rx="112" ry="88" fill="hsl(99 30% 10%)" opacity="0.92" />
      <circle cx="260" cy="226" r="68" fill="hsl(346 36% 95%)" />
      <path d="M196 222 C218 170 300 168 324 224 L318 252 C290 230 234 232 204 252 Z" fill="hsl(99 30% 10%)" opacity="0.88" />
      <path d="M166 408 C206 352 308 352 346 408" stroke="hsl(346 36% 95%)" stroke-width="14" stroke-linecap="round" opacity="0.78" />
      <path d="M204 312 C230 332 280 332 308 312" stroke="hsl(346 36% 95%)" stroke-width="10" stroke-linecap="round" opacity="0.6" />
    </g>
  
    <g transform="translate(330 214)"><path d="M0 106 C24 40 64 8 116 8 C168 8 208 40 232 106" fill="none" stroke="#f36" stroke-width="12" /><path d="M0 106 C24 34 64 2 116 2 C168 2 208 34 232 106" fill="none" stroke="#f8b400" stroke-width="12" /><path d="M0 106 C24 28 64 -4 116 -4 C168 -4 208 28 232 106" fill="none" stroke="#ffde59" stroke-width="12" /><path d="M0 106 C24 22 64 -10 116 -10 C168 -10 208 22 232 106" fill="none" stroke="#45c96b" stroke-width="12" /><path d="M0 106 C24 16 64 -16 116 -16 C168 -16 208 16 232 106" fill="none" stroke="#4fa8ff" stroke-width="12" /></g>
  
  <rect x="46" y="482" width="548" height="112" rx="26" fill="hsl(99 30% 10%)" fill-opacity="0.86" />
  <text x="320" y="530" fill="hsl(346 36% 95%)" font-family="Trebuchet MS, Verdana, sans-serif" font-size="38" font-weight="700" text-anchor="middle">Aurora</text>
  <text x="320" y="568" fill="hsl(346 36% 95%)" opacity="0.84" font-family="Trebuchet MS, Verdana, sans-serif" font-size="21" text-anchor="middle">Roman - Morning</text>
</svg>