<svg width="640" height="360" viewBox="0 0 640 360" fill="none" xmlns="http://www.w3.org/2000/svg">
  <defs>
    <linearGradient id="bg" x1="32" y1="24" x2="598" y2="336" gradientUnits="userSpaceOnUse">
      <stop stop-color="#0F172A"/>
      <stop offset="1" stop-color="#312E81"/>
    </linearGradient>
    <linearGradient id="cardA" x1="142" y1="88" x2="210" y2="258" gradientUnits="userSpaceOnUse">
      <stop stop-color="#475569"/>
      <stop offset="1" stop-color="#0F172A"/>
    </linearGradient>
    <linearGradient id="cardB" x1="426" y1="88" x2="494" y2="258" gradientUnits="userSpaceOnUse">
      <stop stop-color="#38BDF8"/>
      <stop offset="1" stop-color="#1D4ED8"/>
    </linearGradient>
  </defs>
  <rect x="12" y="12" width="616" height="336" rx="32" fill="url(#bg)"/>
  <rect x="36" y="36" width="568" height="288" rx="28" fill="rgba(255,255,255,0.04)" stroke="rgba(255,255,255,0.14)" stroke-width="2"/>
  <rect x="114" y="92" width="110" height="166" rx="24" fill="url(#cardA)" stroke="#94A3B8" stroke-width="4"/>
  <rect x="416" y="92" width="110" height="166" rx="24" fill="url(#cardB)" stroke="#BFDBFE" stroke-width="4"/>
  <rect x="266" y="108" width="108" height="144" rx="22" fill="#111827" stroke="#FBBF24" stroke-width="4" stroke-dasharray="12 10"/>
  <text x="169" y="162" text-anchor="middle" fill="#E2E8F0" font-size="46" font-family="Verdana, sans-serif" font-weight="700">?</text>
  <circle cx="471" cy="144" r="26" fill="#EFF6FF"/>
  <circle cx="461" cy="138" r="5" fill="#1E3A8A"/>
  <circle cx="481" cy="138" r="5" fill="#1E3A8A"/>
  <path d="M455 154C460 160 466 163 471 163C476 163 482 160 487 154" stroke="#1E3A8A" stroke-width="4" stroke-linecap="round"/>
  <rect x="438" y="178" width="66" height="38" rx="18" fill="#DBEAFE"/>
  <path d="M440 220C452 208 463 204 471 204C479 204 490 208 502 220" stroke="#DBEAFE" stroke-width="10" stroke-linecap="round"/>
  <path d="M224 176L266 176" stroke="#F8FAFC" stroke-width="8" stroke-linecap="round" opacity="0.78"/>
  <path d="M374 176L416 176" stroke="#F8FAFC" stroke-width="8" stroke-linecap="round" opacity="0.78"/>
  <path d="M318 140L318 102" stroke="#FBBF24" stroke-width="8" stroke-linecap="round"/>
  <path d="M302 118L318 98L334 118" stroke="#FBBF24" stroke-width="8" stroke-linecap="round" stroke-linejoin="round"/>
  <rect x="214" y="274" width="212" height="34" rx="17" fill="rgba(15,23,42,0.76)" stroke="rgba(255,255,255,0.16)" stroke-width="2"/>
  <text x="320" y="297" text-anchor="middle" fill="#F8FAFC" font-size="20" font-family="Verdana, sans-serif" font-weight="700">SHADOW MATCH</text>
</svg>
