<svg xmlns="http://www.w3.org/2000/svg" viewBox="0 0 320 320" fill="none">
    <defs>
      <linearGradient id="bg-space-eclipse-ranger" x1="30" y1="18" x2="286" y2="320" gradientUnits="userSpaceOnUse">
        <stop stop-color="#111528"/>
        <stop offset="1" stop-color="#45325a"/>
      </linearGradient>
      <radialGradient id="glow-space-eclipse-ranger" cx="0" cy="0" r="1" gradientTransform="translate(160 124) rotate(90) scale(118)" gradientUnits="userSpaceOnUse">
        <stop stop-color="#ffdd8c" stop-opacity="0.56"/>
        <stop offset="1" stop-color="#ffdd8c" stop-opacity="0"/>
      </radialGradient>
      <filter id="shadow-space-eclipse-ranger" x="-30%" y="-30%" width="160%" height="160%">
        <feDropShadow dx="0" dy="14" stdDeviation="12" flood-color="#04101d" flood-opacity="0.34"/>
      </filter>
    </defs>
    <rect width="320" height="320" rx="44" fill="url(#bg-space-eclipse-ranger)"/>
    <circle cx="160" cy="124" r="110" fill="url(#glow-space-eclipse-ranger)"/>
    <circle cx="96.52" cy="87.35" r="2.96" fill="#ffffff" opacity="0.44"/><circle cx="188.59" cy="93.69" r="3.23" fill="#ffffff" opacity="0.62"/><circle cx="150.63" cy="96.40" r="2.61" fill="#ffffff" opacity="0.74"/><circle cx="70.40" cy="85.11" r="3.29" fill="#ffffff" opacity="0.36"/><line x1="59.89" y1="85.11" x2="80.91" y2="85.11" stroke="#ffffff" stroke-width="1.3" opacity="0.18"/><line x1="70.40" y1="74.60" x2="70.40" y2="95.62" stroke="#ffffff" stroke-width="1.3" opacity="0.18"/><circle cx="228.79" cy="134.35" r="1.94" fill="#ffffff" opacity="0.51"/><circle cx="279.24" cy="103.92" r="3.04" fill="#ffffff" opacity="0.72"/><circle cx="134.22" cy="40.68" r="3.40" fill="#ffffff" opacity="0.79"/><line x1="123.33" y1="40.68" x2="145.11" y2="40.68" stroke="#ffffff" stroke-width="1.3" opacity="0.18"/><line x1="134.22" y1="29.79" x2="134.22" y2="51.57" stroke="#ffffff" stroke-width="1.3" opacity="0.18"/><circle cx="263.88" cy="149.67" r="2.16" fill="#ffffff" opacity="0.55"/><circle cx="125.96" cy="60.03" r="3.38" fill="#ffffff" opacity="0.66"/><circle cx="173.73" cy="27.48" r="1.40" fill="#ffffff" opacity="0.73"/><circle cx="242.56" cy="189.33" r="2.88" fill="#ffffff" opacity="0.79"/><circle cx="66.38" cy="97.29" r="3.45" fill="#ffffff" opacity="0.78"/><circle cx="263.20" cy="24.47" r="2.83" fill="#ffffff" opacity="0.66"/><circle cx="41.79" cy="191.24" r="2.87" fill="#ffffff" opacity="0.56"/><circle cx="119.08" cy="188.10" r="2.05" fill="#ffffff" opacity="0.65"/><circle cx="147.97" cy="42.36" r="2.33" fill="#ffffff" opacity="0.52"/><line x1="140.52" y1="42.36" x2="155.42" y2="42.36" stroke="#ffffff" stroke-width="1.3" opacity="0.18"/><line x1="147.97" y1="34.91" x2="147.97" y2="49.81" stroke="#ffffff" stroke-width="1.3" opacity="0.18"/><circle cx="86.13" cy="162.57" r="1.79" fill="#ffffff" opacity="0.48"/><circle cx="194.17" cy="175.37" r="3.30" fill="#ffffff" opacity="0.41"/>
    <ellipse cx="164" cy="122" rx="112" ry="40" fill="none" stroke="#ffffff" stroke-width="2" opacity="0.16" transform="rotate(-12 164 122)"/><ellipse cx="160" cy="126" rx="86" ry="28" fill="none" stroke="#ffffff" stroke-width="2" opacity="0.14" transform="rotate(18 160 126)"/>
    <g filter="url(#shadow-space-eclipse-ranger)">
      <circle cx="160" cy="122" r="46" fill="#ffd166" opacity="0.25"/><circle cx="160" cy="122" r="34" fill="#090d1a"/><g transform="translate(188 186) scale(0.92)">
    <path d="M-54 12 L-16 -16 L34 -8 L56 12 L10 24 Z" fill="#f1f5ff"/>
    <polygon points="-22,2 -54,12 -30,24" fill="#6f7cff"/>
    <polygon points="22,0 56,12 22,22" fill="#6f7cff"/>
    <ellipse cx="8" cy="2" rx="14" ry="10" fill="#6f7cff" opacity="0.9"/>
    <line x1="-8" y1="-6" x2="24" y2="-16" stroke="#ffd166" stroke-width="5" stroke-linecap="round"/>
  </g>
    </g>
    <rect x="10" y="10" width="300" height="300" rx="34" stroke="rgba(255,255,255,0.18)"/>
  </svg>