<svg xmlns="http://www.w3.org/2000/svg" viewBox="0 0 320 320" fill="none">
    <defs>
      <linearGradient id="bg-space-rocket-buddy" x1="30" y1="18" x2="286" y2="320" gradientUnits="userSpaceOnUse">
        <stop stop-color="#1b173f"/>
        <stop offset="1" stop-color="#193d6d"/>
      </linearGradient>
      <radialGradient id="glow-space-rocket-buddy" cx="0" cy="0" r="1" gradientTransform="translate(160 124) rotate(90) scale(118)" gradientUnits="userSpaceOnUse">
        <stop stop-color="#ffb36b" stop-opacity="0.56"/>
        <stop offset="1" stop-color="#ffb36b" stop-opacity="0"/>
      </radialGradient>
      <filter id="shadow-space-rocket-buddy" x="-30%" y="-30%" width="160%" height="160%">
        <feDropShadow dx="0" dy="14" stdDeviation="12" flood-color="#04101d" flood-opacity="0.34"/>
      </filter>
    </defs>
    <rect width="320" height="320" rx="44" fill="url(#bg-space-rocket-buddy)"/>
    <circle cx="160" cy="124" r="110" fill="url(#glow-space-rocket-buddy)"/>
    <circle cx="57.73" cy="191.97" r="3.34" fill="#ffffff" opacity="0.71"/><line x1="47.03" y1="191.97" x2="68.43" y2="191.97" stroke="#ffffff" stroke-width="1.3" opacity="0.18"/><line x1="57.73" y1="181.27" x2="57.73" y2="202.67" stroke="#ffffff" stroke-width="1.3" opacity="0.18"/><circle cx="33.51" cy="165.87" r="1.45" fill="#ffffff" opacity="0.37"/><circle cx="101.21" cy="90.65" r="2.43" fill="#ffffff" opacity="0.79"/><circle cx="38.49" cy="195.00" r="3.34" fill="#ffffff" opacity="0.35"/><circle cx="252.57" cy="158.14" r="2.76" fill="#ffffff" opacity="0.49"/><circle cx="149.62" cy="129.66" r="2.32" fill="#ffffff" opacity="0.65"/><circle cx="175.59" cy="179.77" r="1.82" fill="#ffffff" opacity="0.47"/><circle cx="103.76" cy="200.71" r="1.56" fill="#ffffff" opacity="0.75"/><circle cx="280.40" cy="134.09" r="1.79" fill="#ffffff" opacity="0.79"/><line x1="274.67" y1="134.09" x2="286.13" y2="134.09" stroke="#ffffff" stroke-width="1.3" opacity="0.18"/><line x1="280.40" y1="128.36" x2="280.40" y2="139.82" stroke="#ffffff" stroke-width="1.3" opacity="0.18"/><circle cx="198.19" cy="62.26" r="2.49" fill="#ffffff" opacity="0.42"/><circle cx="258.82" cy="139.19" r="3.16" fill="#ffffff" opacity="0.51"/><circle cx="185.84" cy="179.17" r="1.40" fill="#ffffff" opacity="0.36"/><line x1="181.37" y1="179.17" x2="190.31" y2="179.17" stroke="#ffffff" stroke-width="1.3" opacity="0.18"/><line x1="185.84" y1="174.70" x2="185.84" y2="183.64" stroke="#ffffff" stroke-width="1.3" opacity="0.18"/><circle cx="251.04" cy="140.03" r="3.11" fill="#ffffff" opacity="0.36"/><circle cx="45.52" cy="191.25" r="2.31" fill="#ffffff" opacity="0.62"/><line x1="38.14" y1="191.25" x2="52.90" y2="191.25" stroke="#ffffff" stroke-width="1.3" opacity="0.18"/><line x1="45.52" y1="183.87" x2="45.52" y2="198.63" stroke="#ffffff" stroke-width="1.3" opacity="0.18"/><circle cx="167.78" cy="156.68" r="2.50" fill="#ffffff" opacity="0.38"/><circle cx="81.74" cy="156.63" r="3.42" fill="#ffffff" opacity="0.67"/><circle cx="84.00" cy="29.88" r="2.84" fill="#ffffff" opacity="0.36"/><line x1="74.90" y1="29.88" x2="93.10" y2="29.88" stroke="#ffffff" stroke-width="1.3" opacity="0.18"/><line x1="84.00" y1="20.78" x2="84.00" y2="38.98" stroke="#ffffff" stroke-width="1.3" opacity="0.18"/><circle cx="108.27" cy="92.62" r="2.64" fill="#ffffff" opacity="0.60"/>
    
    <g filter="url(#shadow-space-rocket-buddy)">
      <g transform="translate(232 98) scale(0.38)">
    <polygon points="0,-46 12,-12 46,0 12,12 0,46 -12,12 -46,0 -12,-12" fill="#ffd166" opacity="0.85"/>
  </g><g transform="translate(160 166) scale(1.22)">
    <rect x="-24" y="-42" width="48" height="76" rx="24" fill="#f7f9ff"/>
    <polygon points="0,-68 -24,-30 24,-30" fill="#ffd166"/>
    <polygon points="-18,18 -42,46 -14,38" fill="#ff6f7d"/>
    <polygon points="18,18 42,46 14,38" fill="#ff6f7d"/>
    <polygon points="0,58 -14,32 14,32" fill="#ffd166" opacity="0.92"/>
    <circle cx="0" cy="-6" r="11" fill="#a6c8ff" stroke="#0d1530" stroke-width="4"/>
    <rect x="-8" y="8" width="16" height="18" rx="8" fill="#a6c8ff" opacity="0.9"/>
    <line x1="0" y1="-54" x2="0" y2="-78" stroke="#ffd166" stroke-width="6" stroke-linecap="round" opacity="0.85"/>
  </g>
    </g>
    <rect x="10" y="10" width="300" height="300" rx="34" stroke="rgba(255,255,255,0.18)"/>
  </svg>